<?xml version="1.0" encoding="iso-8859-1"?>
<!-- Uploaded to: SVG Repo, www.svgrepo.com, Generator: SVG Repo Mixer Tools -->
<svg fill="#000000" height="800px" width="800px" version="1.1" id="Layer_1" xmlns="http://www.w3.org/2000/svg" xmlns:xlink="http://www.w3.org/1999/xlink" 
	 viewBox="0 0 512 512" xml:space="preserve">
<g>
	<g>
		<g>
			<path d="M474.411,10.667H120.704c-20.742,0-35.371,14.629-35.371,35.371V224h-64C9.551,224,0,233.551,0,245.333v192
				c0,34.899,27.915,63.24,62.64,63.966c0.446,0.022,0.899,0.034,1.36,0.034h410.411c20.763,0,37.589-16.826,37.589-37.589V48.256
				C512,27.493,495.174,10.667,474.411,10.667z M42.667,266.667h42.667v170.667c0,0.481-0.041,0.951-0.072,1.423
				c-0.862,9.603-10.235,18.977-19.838,19.838c-0.473,0.031-0.943,0.072-1.423,0.072c-11.791,0-21.333-9.542-21.333-21.333V266.667z
				 M469.333,458.667H124.346c2.056-5.817,3.297-12.017,3.582-18.469c0.047-0.951,0.072-1.906,0.072-2.864v-192v-192h341.333
				V458.667z"/>
			<path d="M192,288h64c11.782,0,21.333-9.551,21.333-21.333c0-11.782-9.551-21.333-21.333-21.333h-64
				c-11.782,0-21.333,9.551-21.333,21.333C170.667,278.449,180.218,288,192,288z"/>
			<path d="M192,352h64c11.782,0,21.333-9.551,21.333-21.333c0-11.782-9.551-21.333-21.333-21.333h-64
				c-11.782,0-21.333,9.551-21.333,21.333C170.667,342.449,180.218,352,192,352z"/>
			<path d="M192,416h64c11.782,0,21.333-9.551,21.333-21.333c0-11.782-9.551-21.333-21.333-21.333h-64
				c-11.782,0-21.333,9.551-21.333,21.333C170.667,406.449,180.218,416,192,416z"/>
			<path d="M405.333,245.333h-64c-11.782,0-21.333,9.551-21.333,21.333c0,11.782,9.551,21.333,21.333,21.333h64
				c11.782,0,21.333-9.551,21.333-21.333C426.667,254.885,417.115,245.333,405.333,245.333z"/>
			<path d="M405.333,309.333h-64c-11.782,0-21.333,9.551-21.333,21.333c0,11.782,9.551,21.333,21.333,21.333h64
				c11.782,0,21.333-9.551,21.333-21.333C426.667,318.885,417.115,309.333,405.333,309.333z"/>
			<path d="M405.333,373.333h-64c-11.782,0-21.333,9.551-21.333,21.333c0,11.782,9.551,21.333,21.333,21.333h64
				c11.782,0,21.333-9.551,21.333-21.333C426.667,382.885,417.115,373.333,405.333,373.333z"/>
			<path d="M192,224h213.333c11.782,0,21.333-9.551,21.333-21.333v-85.333c0-11.782-9.551-21.333-21.333-21.333H192
				c-11.782,0-21.333,9.551-21.333,21.333v85.333C170.667,214.449,180.218,224,192,224z M213.333,138.667H384v42.667H213.333
				V138.667z"/>
		</g>
	</g>
</g>
</svg>